<svg width="429" height="43.125371036806726" viewBox="0 0 369.65517241379314 37.15971204200371" class="looka-1j8o68f"><defs id="SvgjsDefs3625"></defs><g id="SvgjsG3626" featurekey="symbolFeature-0" transform="matrix(0.6352087114337569,0,0,0.6352087114337569,-1.5245009680192398,-13.529945068913236)" fill="#fda4af"><path xmlns="http://www.w3.org/2000/svg" fill="#fda4af" d="M97.1,53.6V55L48.9,79.1v-1.4L97.1,53.6 M97.4,53L48.6,77.4v2.3l48.8-24.5V53L97.4,53z"></path><path xmlns="http://www.w3.org/2000/svg" fill="#fda4af" d="M2.8,53.5l45.6,24.2v1.4L2.8,55V53.5 M2.4,52.9v2.4l46.2,24.5v-2.3L2.4,52.9L2.4,52.9z"></path><g xmlns="http://www.w3.org/2000/svg"><path fill="#fda4af" d="M39.3,70.8h-3.2l12.5,6.6l12.7-6.4l0.3-5.2c-0.6,0.3-1.2,0.7-1.8,1C54.3,69.6,46.9,71.1,39.3,70.8z"></path><rect x="64.6" y="34.8" fill="#fda4af" width="0" height="1.5"></rect><path fill="#fda4af" d="M37.2,35.5L2.4,53l10,5.3l28.8-14.5C39.3,41,37.7,38,37.2,35.5z"></path><path fill="#fda4af" d="M58.2,46.1c-3.3,4.3-6.7,7.9-7,8.1l-0.7,0.7l-0.7-0.7c-0.3-0.3-3.3-3.4-6.4-7.4l-27,13.5l13.9,7.4h9.3     c5.9,0.2,11.8-0.9,16.1-3.1c3.6-1.8,5.8-4.2,6.3-6.7l0.1-1.5l0.2-3.1C62.8,50.8,61.3,48.2,58.2,46.1z"></path><path fill="#fda4af" d="M68.2,53.5h14.2l0.4-8.2l-17.5-9.3l-1.8,0.9c-0.6,1.9-1.7,4-3,6l0.7,0.4l0,0     C66.3,45.9,68.8,49.6,68.2,53.5z"></path><polygon fill="#fda4af" points="88.6,48.3 88.3,53.5 96.4,53.5 97.4,53    "></polygon><path fill="#fda4af" d="M82.2,56.5l-14.2,0c0,0.5,0,1.1-0.1,1.6L67.4,68l22.9-11.5h-2.2H82.2z"></path></g><path xmlns="http://www.w3.org/2000/svg" fill="#fda4af" d="M50.5,21.3C43.6,21.3,38,27,38,33.9s12.6,19.7,12.6,19.7s12.6-12.7,12.6-19.7C63.1,27,57.5,21.3,50.5,21.3    z M50.5,37.4c-3,0-5.5-2.4-5.5-5.5s2.4-5.5,5.5-5.5c3,0,5.5,2.4,5.5,5.5S53.5,37.4,50.5,37.4z"></path></g><g id="SvgjsG3627" featurekey="nameFeature-0" transform="matrix(0.615163280317642,0,0,0.615163280317642,76.97216696318189,6.230921526533731)" fill="#48466d"><path d="M23.281 7.5 l11.797 0 l0 -6.0938 l-30.156 0 l0 6.0938 l18.359 0 z M16.719 13.594000000000001 l6.5625 0 l0 25 l-6.5625 0 l0 -25 z M75.781 38.5937 l-10.078 -14.063 c1.3541 -0.41664 2.552 -0.91141 3.5937 -1.4843 c1.1459 -0.72914 2.0834 -1.5364 2.8125 -2.4218 c0.83336 -0.98961 1.4323 -2.0573 1.797 -3.2032 c0.46875 -1.25 0.70313 -2.6563 0.70313 -4.2188 c0 -1.8229 -0.3125 -3.4635 -0.9375 -4.9219 c-0.625 -1.4063 -1.5365 -2.6302 -2.7344 -3.6719 c-1.1459 -0.98961 -2.6042 -1.7709 -4.3751 -2.3438 c-1.8229 -0.57289 -3.75 -0.85938 -5.7813 -0.85938 l-16.563 0 l0 5.9375 l16.016 0 c2.4479 0 4.3489 0.52086 5.703 1.5625 s2.0313 2.6041 2.0313 4.6875 c0 1.9271 -0.67711 3.4375 -2.0313 4.5313 c-1.3541 1.1459 -3.2291 1.7188 -5.625 1.7188 l-16.094 0 l0 18.75 l6.4844 0 l0 -12.969 l8.2031 0 l9.1406 12.969 l7.7344 0 l0 0 z M110.703 38.5937 l7.0313 0 l-13.594 -37.266 l-7.1094 0 l7.8906 22.266 z M81.9531 38.5937 l6.875 0 l8.125 -19.844 l-3.3594 -8.9063 z M128.9844 1.328000000000003 l-7.0313 0 l13.594 37.266 l7.1094 0 l-7.8906 -22.344 z M157.734 1.328000000000003 l-6.875 0 l-8.125 19.844 l3.3594 8.9063 z M166.0938 1.4059999999999988 l27.813 0 l0 5.9375 l-27.813 0 l0 -5.9375 z M166.0938 32.6562 l27.734 0 l0 5.9375 l-27.734 0 l0 -5.9375 z M166.0938 16.875 l25.078 0 l0 5.8594 l-25.078 0 l0 -5.8594 z M207.0313 1.4059999999999988 l6.4063 0 l0 31.25 l19.531 0 l0 5.9375 l-25.938 0 l0 -37.188 z M271.953 38.5937 l6.5625 0 l0 -27.422 l-6.5625 9.6094 l0 17.813 z M278.516 1.4059999999999988 l-7.0313 0 l-11.484 17.813 l-11.406 -17.813 l-7.0313 0 l0 37.188 l6.5625 0 l0 -26.406 l11.719 17.578 l0.23438 0 l10.234 -15.156 c0.052109 -0.20836 2.7865 -4.6094 8.2031 -13.203 z M303.281 16.875 l0 -15.547 l-6.5625 0 l0 37.344 l6.5625 0 l0 -21.797 z M323.8281 38.5937 l6.4844 0 l0 -19.922 l-6.4844 -9.1406 l0 29.063 z M349.766 1.4059999999999988 l0 25.703 l-18.359 -25.703 l-7.0313 0 l26.406 37.188 l5.3906 0 l0 -37.188 l-6.4063 0 z M392.813 27.344 c-0.98961 2.3959 -2.3438 4.375 -4.0625 5.9375 c-1.7709 1.6666 -3.8542 2.9688 -6.2501 3.9063 s-5.0781 1.4063 -8.0469 1.4063 l-8.6719 0 l0 -5.9375 l8.5938 0 c1.9791 0 3.776 -0.3125 5.3906 -0.9375 c1.5625 -0.625 2.9166 -1.5104 4.0625 -2.6563 s2.0313 -2.5 2.6563 -4.0625 s0.9375 -3.2813 0.9375 -5.1563 c0 -1.8229 -0.3125 -3.5156 -0.9375 -5.0781 c-0.625 -1.6146 -1.5104 -2.9427 -2.6563 -3.9844 c-1.0416 -1.0938 -2.3958 -1.9791 -4.0624 -2.6563 c-1.6666 -0.625 -3.4635 -0.9375 -5.3906 -0.9375 l-8.5938 0 l0 -5.9375 l8.6719 0 c2.7604 0 5.4166 0.49477 7.9688 1.4844 c2.3959 0.88539 4.5052 2.2135 6.3281 3.9844 c1.7709 1.6146 3.125 3.5938 4.0625 5.9375 c0.98961 2.3959 1.4844 4.8438 1.4844 7.3438 c0 2.7084 -0.49477 5.1563 -1.4844 7.3438 z M406.0938 1.4059999999999988 l27.813 0 l0 5.9375 l-27.813 0 l0 -5.9375 z M406.0938 32.6562 l27.734 0 l0 5.9375 l-27.734 0 l0 -5.9375 z M406.0938 16.875 l25.078 0 l0 5.8594 l-25.078 0 l0 -5.8594 z M475.781 38.5937 l-10.078 -14.063 c1.3541 -0.41664 2.552 -0.91141 3.5937 -1.4843 c1.1459 -0.72914 2.0834 -1.5364 2.8125 -2.4218 c0.83336 -0.98961 1.4323 -2.0573 1.797 -3.2032 c0.46875 -1.25 0.70313 -2.6563 0.70313 -4.2188 c0 -1.8229 -0.3125 -3.4635 -0.9375 -4.9219 c-0.625 -1.4063 -1.5365 -2.6302 -2.7344 -3.6719 c-1.1459 -0.98961 -2.6042 -1.7709 -4.3751 -2.3438 c-1.8229 -0.57289 -3.75 -0.85938 -5.7813 -0.85938 l-16.563 0 l0 5.9375 l16.016 0 c2.4479 0 4.3489 0.52086 5.703 1.5625 s2.0313 2.6041 2.0313 4.6875 c0 1.9271 -0.67711 3.4375 -2.0313 4.5313 c-1.3541 1.1459 -3.2291 1.7188 -5.625 1.7188 l-16.094 0 l0 18.75 l6.4844 0 l0 -12.969 l8.2031 0 l9.1406 12.969 l7.7344 0 l0 0 z"></path></g></svg>